<svg xmlns="http://www.w3.org/2000/svg" width="223" height="49.809" viewBox="0 0 223 49.809"><defs><style>.a{fill:#4279bb;}</style></defs><path d="M491.9,38.291a12.377,12.377,0,1,1,12.371-12.379A12.385,12.385,0,0,1,491.9,38.291m-.092-37.169A24.695,24.695,0,1,0,516.5,25.82a24.7,24.7,0,0,0-24.691-24.7" transform="translate(-293.503 -0.705)"/><path class="a" d="M517.146,41.45a9.708,9.708,0,1,0,9.708,9.708,9.708,9.708,0,0,0-9.708-9.708" transform="translate(-318.837 -26.045)"/><path d="M360.239,32.517h13.9a10.491,10.491,0,0,1-11.554,7.447,12.346,12.346,0,0,1-10.033-5.709c-5.712-9.933,0-17.248,0-17.248,2.6-4.593,9.429-5.09,9.429-5.09,8.313,0,11.167,6.206,11.167,6.206h12.9a24.846,24.846,0,1,0,1.079,4.965H360.239v9.429Z" transform="translate(-212.31 -0.703)"/><path d="M95.368,34.263A9.673,9.673,0,1,0,85.7,24.592a9.664,9.664,0,0,0,9.672,9.672M83.063,24.592a12.307,12.307,0,1,1,12.3,12.3,12.3,12.3,0,0,1-12.3-12.3m-17.13,0a10.383,10.383,0,0,0,4.95-3.05,22.5,22.5,0,0,0,.029,6.744c-1.02-1.569-3.436-3.5-4.979-3.694M57.087,11.565c1.934,0,3.455,1.908,3.455,4.084s-1.521,4.084-3.455,4.084H50.439V11.565Zm-.026,18.146c1.937,0,3.458,1.908,3.458,4.088S59,37.88,57.061,37.88H50.417V29.711Zm38.3,19.671a24.793,24.793,0,0,0,24.558-24.8,24.553,24.553,0,0,0-46.7-10.622C73.229,7.933,67.285.81,60.328.8H37.92V49.135l20.89.007c8.427,0,14.419-7.3,14.426-13.554,1.93,3.937,8.592,13.8,22.124,13.793m-60.177-.228H22.05V30.4H13.524V49.154H.044L0,.807H13.524V18.795H22.05V.807H35.184V49.154h0Z" transform="translate(0 0)"/></svg>